<svg version="1.1" xmlns="http://www.w3.org/2000/svg" xmlns:xlink="http://www.w3.org/1999/xlink" width="704" height="1671" viewBox="0 0 704 1671"><defs/><g transform="matrix(1,0,0,1,0,0)"><g><g><g><path fill="none" stroke="#d3d3d3" paint-order="fill stroke markers" d=" M 0 0 L 1200 0" stroke-miterlimit="10" stroke-opacity="0.8" stroke-dasharray="5"/></g><g><path fill="none" stroke="#d3d3d3" paint-order="fill stroke markers" d=" M 0 0 L 0 800" stroke-miterlimit="10" stroke-opacity="0.8" stroke-dasharray="5"/></g></g><g id="_CA0DAE7C-FEAB-40F2-A957-36AB7C7BEB33" transform="matrix(1,0,0,1,352,50)"><g><path fill="#fff" stroke="#ccc" id="_CA0DAE7C-FEAB-40F2-A957-36AB7C7BEB33?shapeType=BACKGROUND" paint-order="fill stroke markers" d=" M 25 0 L 25 0 L 25 0 A 25 25 0 0 1 50 25 L 50 25 L 50 25 A 25 25 0 0 1 25 50 L 25 50 L 25 50 A 25 25 0 0 1 0 25.000000000000004 L 0 25 L 0 25.000000000000004 A 25 25 0 0 1 25 0 Z" stroke-miterlimit="10" stroke-width="2" stroke-dasharray=""/></g><g transform="matrix(1,0,0,1,7,29)"><text fill="#929292" stroke="none" font-family="Open Sans" font-size="12pt" font-style="normal" font-weight="normal" text-decoration="normal" x="0" y="0" text-anchor="start" dominant-baseline="alphabetic">Start</text></g></g><g id="_03DBF632-9046-4866-B672-98BFF3883851" transform="matrix(1,0,0,1,252,229)"><g><path fill="#fff" stroke="#ccc" id="_03DBF632-9046-4866-B672-98BFF3883851?shapeType=BACKGROUND" paint-order="fill stroke markers" d=" M 0 5 L 0 5 L 0 5.000000000000001 A 5 5 0 0 1 5 0 L 245 0 L 245 0 L 245 0 A 5 5 0 0 1 250 5 L 250 85 L 250 85 L 250 85 A 5 5 0 0 1 245 90 L 5 90 L 5 90 L 5 90 A 5 5 0 0 1 0 85 Z" stroke-miterlimit="10" stroke-width="2" stroke-dasharray=""/></g><g transform="matrix(1,0,0,1,45,46)"><g id="_03DBF632-9046-4866-B672-98BFF3883851"><path fill="#8BC1F7" stroke="#d5d5d5" id="_03DBF632-9046-4866-B672-98BFF3883851" paint-order="fill stroke markers" d=" M 0 -25 L 0 -25 L 1.5308084989341915e-15 -25 A 25 25 0 0 1 25 0 L 25 0 L 25 0 A 25 25 0 0 1 1.5308084989341915e-15 25 L 0 25 L 1.5308084989341915e-15 25 A 25 25 0 0 1 -25 3.061616997868383e-15 L -25 0 L -25 3.061616997868383e-15 A 25 25 0 0 1 1.5308084989341915e-15 -25 Z" stroke-miterlimit="10" stroke-dasharray=""/></g><g><g transform="matrix(0.35,0,0,0.35,-11,-11)"><path fill="#fff" stroke="#fff" paint-order="fill stroke markers" d=" M 0 0 M 35.02 28.49 C 35.02 28.49 34.99 28.459999999999997 34.970000000000006 28.45 L 24.680000000000007 18.16 C 22.900000000000006 16.38 20.000000000000007 16.37 18.220000000000006 18.16 C 16.430000000000007 19.95 16.440000000000005 22.84 18.220000000000006 24.62 L 21.030000000000005 27.43 L 4.57 27.43 C 2.0500000000000003 27.43 0 29.47 0 32 C 0 34.53 2.05 36.57 4.57 36.57 L 20.94 36.57 L 18.19 39.32 C 16.41 41.1 16.400000000000002 44 18.19 45.78 C 19.98 47.56 22.87 47.56 24.650000000000002 45.78 L 34.74 35.69 C 35.02 35.489999999999995 35.28 35.25 35.510000000000005 34.98 C 36.010000000000005 34.4 36.330000000000005 33.709999999999994 36.480000000000004 32.98 C 36.85 31.389999999999997 36.370000000000005 29.65 35.02 28.479999999999997 M 0.01 4.23 C 0.19 1.83 2.25 0 4.66 0 L 59.43 0 C 61.96 0 64 2.05 64 4.57 C 64 7.090000000000001 61.96 9.14 59.43 9.14 L 4.57 9.14 C 1.93 9.14 -0.18 6.91 0.01 4.23 M 46.09 18.29 L 59.330000000000005 18.29 C 61.67 18.29 63.82000000000001 20.2 63.980000000000004 22.53 C 64.17 25.21 62.06 27.43 59.42 27.43 L 45.99 27.43 C 43.35 27.43 41.24 25.21 41.43 22.53 C 41.589999999999996 20.19 43.74 18.29 46.08 18.29 M 59.43 36.57 C 62.07 36.57 64.18 38.79 63.99 41.47 C 63.830000000000005 43.81 61.68 45.71 59.34 45.71 L 46.1 45.71 C 43.760000000000005 45.71 41.61 43.800000000000004 41.45 41.47 C 41.260000000000005 38.79 43.370000000000005 36.57 46.010000000000005 36.57 L 59.440000000000005 36.57 M 0 59.43 C 0 56.9 2.05 54.86 4.57 54.86 L 59.34 54.86 C 61.68000000000001 54.86 63.830000000000005 56.769999999999996 63.99 59.1 C 64.18 61.78 62.07 64 59.43 64 L 4.57 64 C 2.0500000000000003 64 0 61.96 0 59.43 Z" stroke-miterlimit="10" stroke-width="2" stroke-dasharray=""/></g></g></g><g transform="matrix(1,0,0,1,80,31.5)"><text fill="#383B3D" stroke="none" font-family="Open Sans" font-size="12pt" font-style="normal" font-weight="normal" text-decoration="normal" x="27.5234375" y="12" text-anchor="middle" dominant-baseline="central">loading</text></g></g><g id="_CE43E929-436F-4787-A92B-5C717D3577A7" transform="matrix(1,0,0,1,252,446)"><g><path fill="#E7F1FA" stroke="#0066CC" id="_CE43E929-436F-4787-A92B-5C717D3577A7?shapeType=BACKGROUND" paint-order="fill stroke markers" d=" M 0 5 L 0 5 L 0 5.000000000000001 A 5 5 0 0 1 5 0 L 245 0 L 245 0 L 245 0 A 5 5 0 0 1 250 5 L 250 85 L 250 85 L 250 85 A 5 5 0 0 1 245 90 L 5 90 L 5 90 L 5 90 A 5 5 0 0 1 0 85 Z" stroke-miterlimit="10" stroke-width="2" stroke-dasharray=""/></g><g transform="matrix(1,0,0,1,45,46)"><g id="_CE43E929-436F-4787-A92B-5C717D3577A7"><path fill="#F4C145" stroke="#d5d5d5" id="_CE43E929-436F-4787-A92B-5C717D3577A7" paint-order="fill stroke markers" d=" M 0 -25 L 0 -25 L 1.5308084989341915e-15 -25 A 25 25 0 0 1 25 0 L 25 0 L 25 0 A 25 25 0 0 1 1.5308084989341915e-15 25 L 0 25 L 1.5308084989341915e-15 25 A 25 25 0 0 1 -25 3.061616997868383e-15 L -25 0 L -25 3.061616997868383e-15 A 25 25 0 0 1 1.5308084989341915e-15 -25 Z" stroke-miterlimit="10" stroke-dasharray=""/></g><g><g transform="matrix(0.35,0,0,0.35,-11,-11)"><path fill="#fff" stroke="#fff" paint-order="fill stroke markers" d=" M 0 0 M 45.254 45.197 L 36.216 45.197 L 42.206 31.792 C 42.613 30.98 42.307 29.965 41.597 29.355 C 40.887 28.746 39.768 28.849 39.06 29.457 L 19.561 45.705 C 18.953 46.215 18.646 47.128 18.953 47.939 C 19.258 48.754 19.968 49.262 20.883 49.262 L 29.921 49.262 L 23.928 62.667 C 23.521 63.478 23.825 64.493 24.538 65.103 C 24.943 65.51 25.247 65.609 25.756 65.609 C 26.263 65.609 26.67 65.406 27.076 65.103 L 46.573 48.854 C 47.183 48.347 47.488 47.431 47.183 46.62 C 46.879 45.808 46.066 45.197 45.254 45.197 Z M 0 0 M 53.378 16.865 C 53.275 16.865 53.275 16.865 53.175 16.865 C 53.275 16.153 53.378 15.543 53.378 14.834 C 53.378 9.247 48.808 4.679 43.222 4.679 C 40.073 4.679 37.333 6.101 35.505 8.334 C 33.068 3.765 28.394 0.615 22.911 0.615 C 15.094 0.615 8.694 7.014 8.694 14.834 C 8.694 15.747 8.794 16.661 8.997 17.575 C 4.023 19.2 0.469 23.872 0.571 29.355 C 0.773 36.057 6.258 41.237 12.858 41.237 L 18.646 41.237 L 36.419 26.41 C 37.535 25.496 38.856 24.989 40.276 24.989 C 41.597 24.989 42.919 25.396 43.932 26.207 C 46.169 27.933 46.981 30.98 45.761 33.521 L 42.511 41.237 L 53.275 41.237 C 59.878 41.237 65.36 36.057 65.563 29.457 C 65.766 22.552 60.285 16.865 53.378 16.865 Z" stroke-miterlimit="10" stroke-width="2" stroke-dasharray=""/></g></g></g><g transform="matrix(1,0,0,1,224,6)"><g><path fill="white" stroke="white" paint-order="fill stroke markers" d=" M 9 0 L 11 0 L 10.999999999999998 0 A 9 9 0 0 1 20 9 L 20 11 L 20 11 A 9 9 0 0 1 11 20 L 9 20 L 9 20 A 9 9 0 0 1 0 11.000000000000002 L 0 9 L 0 9.000000000000002 A 9 9 0 0 1 8.999999999999998 0 Z" fill-opacity="0.001" stroke-miterlimit="10" stroke-opacity="0.001" stroke-dasharray=""/></g><g transform="matrix(2,0,0,2,0,0)"><path fill="#CCC" stroke="none" paint-order="stroke fill markers" d=" M 0 0 M 4.531 2.344 C 4.531 2.084 4.74 1.875 5 1.875 C 5.26 1.875 5.469 2.084 5.469 2.344 L 5.469 4.75 L 7.135 5.859 C 7.35 6.004 7.408 6.295 7.248 6.51 C 7.121 6.725 6.83 6.783 6.615 6.623 L 4.74 5.373 C 4.609 5.303 4.531 5.156 4.531 4.982 L 4.531 2.344 Z M 0 0 M 5 0 C 7.762 0 10 2.238 10 5 C 10 7.762 7.762 10 5 10 C 2.238 10 0 7.762 0 5 C 0 2.238 2.238 0 5 0 Z M 0 0 M 0.938 5 C 0.938 7.244 2.756 9.063 5 9.063 C 7.244 9.063 9.063 7.244 9.063 5 C 9.063 2.756 7.244 0.938 5 0.938 C 2.756 0.938 0.938 2.756 0.938 5 Z"/></g></g><g transform="matrix(1,0,0,1,80,31.5)"><text fill="#383B3D" stroke="none" font-family="Open Sans" font-size="12pt" font-style="normal" font-weight="normal" text-decoration="normal" x="50.65625" y="12" text-anchor="middle" dominant-baseline="central">loading-event</text></g></g><g id="_8D1DEC19-1F53-4C98-8140-FE3240A61C87" transform="matrix(1,0,0,1,227,663)"><g><path fill="#fff" stroke="#ccc" id="_8D1DEC19-1F53-4C98-8140-FE3240A61C87?shapeType=BACKGROUND" paint-order="fill stroke markers" d=" M 0 5 L 0 5 L 0 5.000000000000001 A 5 5 0 0 1 5 0 L 245 0 L 245 0 L 245 0 A 5 5 0 0 1 250 5 L 250 85 L 250 85 L 250 85 A 5 5 0 0 1 245 90 L 5 90 L 5 90 L 5 90 A 5 5 0 0 1 0 85 Z" stroke-miterlimit="10" stroke-width="2" stroke-dasharray=""/></g><g transform="matrix(1,0,0,1,45,46)"><g id="_8D1DEC19-1F53-4C98-8140-FE3240A61C87"><path fill="#009596" stroke="#d5d5d5" id="_8D1DEC19-1F53-4C98-8140-FE3240A61C87" paint-order="fill stroke markers" d=" M 0 -25 L 0 -25 L 1.5308084989341915e-15 -25 A 25 25 0 0 1 25 0 L 25 0 L 25 0 A 25 25 0 0 1 1.5308084989341915e-15 25 L 0 25 L 1.5308084989341915e-15 25 A 25 25 0 0 1 -25 3.061616997868383e-15 L -25 0 L -25 3.061616997868383e-15 A 25 25 0 0 1 1.5308084989341915e-15 -25 Z" stroke-miterlimit="10" stroke-dasharray=""/></g><g><g transform="matrix(0.35,0,0,0.35,-11,-11)"><path fill="#fff" stroke="#fff" paint-order="fill stroke markers" d=" M 0 0 M 60.6 46.54 L 54.07 46.54 L 54.07 37.83 C 54.01 36.449999999999996 53.35 35.14 52.24 34.309999999999995 L 44.82 28.749999999999996 L 44.82 28.749999999999996 L 36.41 22.389999999999997 L 36.41 4.4 C 36.4 1.87 34.26 -0.17 31.69 0.01 C 29.44 0.17 27.6 2.23 27.6 4.49 L 27.6 22.41 L 19.19 28.72 L 19.19 28.72 L 11.770000000000001 34.269999999999996 C 10.660000000000002 35.099999999999994 10.010000000000002 36.41 9.940000000000001 37.79 L 9.940000000000001 46.5 L 3.4 46.5 C 0.45999999999999996 46.47 -1.02 50.03 1.06 52.11 L 12.07 63 C 13.36 64.29 15.45 64.29 16.75 63 L 27.759999999999998 52.11 C 29.839999999999996 50.15 28.369999999999997 46.59 25.419999999999998 46.64 L 18.75 46.64 L 18.75 40.01 C 18.75 40.01 26.97 33.93 32.03 30.14 C 36.99 33.87 45.230000000000004 40.06 45.27 40.04 L 45.27 46.67 L 38.6 46.67 C 35.660000000000004 46.620000000000005 34.18 50.18 36.260000000000005 52.14 L 47.27 63.03 C 48.56 64.32000000000001 50.650000000000006 64.32000000000001 51.95 63.03 L 62.96 52.14 C 65.04 50.06 63.56 46.5 60.620000000000005 46.53 Z" stroke-miterlimit="10" stroke-width="2" stroke-dasharray=""/></g></g></g><g transform="matrix(1,0,0,1,224,6)"><g><path fill="white" stroke="white" paint-order="fill stroke markers" d=" M 9 0 L 11 0 L 10.999999999999998 0 A 9 9 0 0 1 20 9 L 20 11 L 20 11 A 9 9 0 0 1 11 20 L 9 20 L 9 20 A 9 9 0 0 1 0 11.000000000000002 L 0 9 L 0 9.000000000000002 A 9 9 0 0 1 8.999999999999998 0 Z" fill-opacity="0.001" stroke-miterlimit="10" stroke-opacity="0.001" stroke-dasharray=""/></g><g transform="matrix(2,0,0,2,0,0)"><path fill="#CCC" stroke="none" paint-order="stroke fill markers" d=" M 0 0 M 7.382 2.142 L 9.781 4.542 C 9.921 4.683 10 4.876 10 5.076 C 10 5.274 9.921 5.467 9.781 5.608 L 7.382 8.008 C 7.256 8.132 7.088 8.2 6.912 8.2 C 6.547 8.2 6.25 7.903 6.25 7.538 L 6.25 6.326 L 3.75 6.326 C 3.405 6.326 3.126 6.046 3.126 5.7 L 3.126 4.45 C 3.126 4.105 3.405 3.826 3.75 3.826 L 6.25 3.826 L 6.25 2.612 C 6.25 2.247 6.547 1.95 6.912 1.95 C 7.088 1.95 7.256 2.02 7.382 2.142 Z M 0 0 M 3.126 1.95 L 1.876 1.95 C 1.53 1.95 1.25 2.23 1.25 2.576 L 1.25 7.576 C 1.25 7.92 1.53 8.2 1.876 8.2 L 3.126 8.2 C 3.47 8.2 3.75 8.48 3.75 8.826 C 3.75 9.17 3.47 9.45 3.126 9.45 L 1.876 9.45 C 0.84 9.45 0 8.61 0 7.576 L 0 2.576 C 0 1.54 0.84 0.7 1.876 0.7 L 3.126 0.7 C 3.47 0.7 3.75 0.98 3.75 1.326 C 3.75 1.67 3.47 1.95 3.126 1.95 Z"/></g></g><g transform="matrix(1,0,0,1,80,31.5)"><text fill="#383B3D" stroke="none" font-family="Open Sans" font-size="12pt" font-style="normal" font-weight="normal" text-decoration="normal" x="53.703125" y="12" text-anchor="middle" dominant-baseline="central">loading-switch</text></g></g><g id="_6184A61B-E94A-430C-88F7-79EAF01BD10F" transform="matrix(1,0,0,1,152,880)"><g><path fill="#fff" stroke="#ccc" id="_6184A61B-E94A-430C-88F7-79EAF01BD10F?shapeType=BACKGROUND" paint-order="fill stroke markers" d=" M 0 0 L 46 0 L 46 46 L 0 46 Z" stroke-miterlimit="10" stroke-width="2" stroke-dasharray=""/></g><g transform="matrix(1,0,0,1,9,29)"><text fill="#929292" stroke="none" font-family="Open Sans" font-size="12pt" font-style="normal" font-weight="normal" text-decoration="normal" x="0" y="0" text-anchor="start" dominant-baseline="alphabetic">End</text></g></g><g id="_1A9F322D-E105-42DF-900C-24DE51DEB14D" transform="matrix(1,0,0,1,354,880)"><g><path fill="#fff" stroke="#ccc" id="_1A9F322D-E105-42DF-900C-24DE51DEB14D?shapeType=BACKGROUND" paint-order="fill stroke markers" d=" M 0 5 L 0 5 L 0 5.000000000000001 A 5 5 0 0 1 5 0 L 245 0 L 245 0 L 245 0 A 5 5 0 0 1 250 5 L 250 85 L 250 85 L 250 85 A 5 5 0 0 1 245 90 L 5 90 L 5 90 L 5 90 A 5 5 0 0 1 0 85 Z" stroke-miterlimit="10" stroke-width="2" stroke-dasharray=""/></g><g transform="matrix(1,0,0,1,45,46)"><g id="_1A9F322D-E105-42DF-900C-24DE51DEB14D"><path fill="#F4C145" stroke="#d5d5d5" id="_1A9F322D-E105-42DF-900C-24DE51DEB14D" paint-order="fill stroke markers" d=" M 0 -25 L 0 -25 L 1.5308084989341915e-15 -25 A 25 25 0 0 1 25 0 L 25 0 L 25 0 A 25 25 0 0 1 1.5308084989341915e-15 25 L 0 25 L 1.5308084989341915e-15 25 A 25 25 0 0 1 -25 3.061616997868383e-15 L -25 0 L -25 3.061616997868383e-15 A 25 25 0 0 1 1.5308084989341915e-15 -25 Z" stroke-miterlimit="10" stroke-dasharray=""/></g><g><g transform="matrix(0.35,0,0,0.35,-11,-11)"><path fill="#fff" stroke="#fff" paint-order="fill stroke markers" d=" M 0 0 M 45.254 45.197 L 36.216 45.197 L 42.206 31.792 C 42.613 30.98 42.307 29.965 41.597 29.355 C 40.887 28.746 39.768 28.849 39.06 29.457 L 19.561 45.705 C 18.953 46.215 18.646 47.128 18.953 47.939 C 19.258 48.754 19.968 49.262 20.883 49.262 L 29.921 49.262 L 23.928 62.667 C 23.521 63.478 23.825 64.493 24.538 65.103 C 24.943 65.51 25.247 65.609 25.756 65.609 C 26.263 65.609 26.67 65.406 27.076 65.103 L 46.573 48.854 C 47.183 48.347 47.488 47.431 47.183 46.62 C 46.879 45.808 46.066 45.197 45.254 45.197 Z M 0 0 M 53.378 16.865 C 53.275 16.865 53.275 16.865 53.175 16.865 C 53.275 16.153 53.378 15.543 53.378 14.834 C 53.378 9.247 48.808 4.679 43.222 4.679 C 40.073 4.679 37.333 6.101 35.505 8.334 C 33.068 3.765 28.394 0.615 22.911 0.615 C 15.094 0.615 8.694 7.014 8.694 14.834 C 8.694 15.747 8.794 16.661 8.997 17.575 C 4.023 19.2 0.469 23.872 0.571 29.355 C 0.773 36.057 6.258 41.237 12.858 41.237 L 18.646 41.237 L 36.419 26.41 C 37.535 25.496 38.856 24.989 40.276 24.989 C 41.597 24.989 42.919 25.396 43.932 26.207 C 46.169 27.933 46.981 30.98 45.761 33.521 L 42.511 41.237 L 53.275 41.237 C 59.878 41.237 65.36 36.057 65.563 29.457 C 65.766 22.552 60.285 16.865 53.378 16.865 Z" stroke-miterlimit="10" stroke-width="2" stroke-dasharray=""/></g></g></g><g transform="matrix(1,0,0,1,224,6)"><g><path fill="white" stroke="white" paint-order="fill stroke markers" d=" M 9 0 L 11 0 L 10.999999999999998 0 A 9 9 0 0 1 20 9 L 20 11 L 20 11 A 9 9 0 0 1 11 20 L 9 20 L 9 20 A 9 9 0 0 1 0 11.000000000000002 L 0 9 L 0 9.000000000000002 A 9 9 0 0 1 8.999999999999998 0 Z" fill-opacity="0.001" stroke-miterlimit="10" stroke-opacity="0.001" stroke-dasharray=""/></g><g transform="matrix(2,0,0,2,0,0)"><path fill="#CCC" stroke="none" paint-order="stroke fill markers" d=" M 0 0 M 4.531 2.344 C 4.531 2.084 4.74 1.875 5 1.875 C 5.26 1.875 5.469 2.084 5.469 2.344 L 5.469 4.75 L 7.135 5.859 C 7.35 6.004 7.408 6.295 7.248 6.51 C 7.121 6.725 6.83 6.783 6.615 6.623 L 4.74 5.373 C 4.609 5.303 4.531 5.156 4.531 4.982 L 4.531 2.344 Z M 0 0 M 5 0 C 7.762 0 10 2.238 10 5 C 10 7.762 7.762 10 5 10 C 2.238 10 0 7.762 0 5 C 0 2.238 2.238 0 5 0 Z M 0 0 M 0.938 5 C 0.938 7.244 2.756 9.063 5 9.063 C 7.244 9.063 9.063 7.244 9.063 5 C 9.063 2.756 7.244 0.938 5 0.938 C 2.756 0.938 0.938 2.756 0.938 5 Z"/></g></g><g transform="matrix(1,0,0,1,80,31.5)"><text fill="#383B3D" stroke="none" font-family="Open Sans" font-size="12pt" font-style="normal" font-weight="normal" text-decoration="normal" x="18.95703125" y="12" text-anchor="middle" dominant-baseline="central">error</text></g></g><g id="_ABD65751-C1ED-4C6D-92FA-863D2CBE5FB9" transform="matrix(1,0,0,1,227,1097)"><g><path fill="#fff" stroke="#ccc" id="_ABD65751-C1ED-4C6D-92FA-863D2CBE5FB9?shapeType=BACKGROUND" paint-order="fill stroke markers" d=" M 0 5 L 0 5 L 0 5.000000000000001 A 5 5 0 0 1 5 0 L 245 0 L 245 0 L 245 0 A 5 5 0 0 1 250 5 L 250 85 L 250 85 L 250 85 A 5 5 0 0 1 245 90 L 5 90 L 5 90 L 5 90 A 5 5 0 0 1 0 85 Z" stroke-miterlimit="10" stroke-width="2" stroke-dasharray=""/></g><g transform="matrix(1,0,0,1,45,46)"><g id="_ABD65751-C1ED-4C6D-92FA-863D2CBE5FB9"><path fill="#F4C145" stroke="#d5d5d5" id="_ABD65751-C1ED-4C6D-92FA-863D2CBE5FB9" paint-order="fill stroke markers" d=" M 0 -25 L 0 -25 L 1.5308084989341915e-15 -25 A 25 25 0 0 1 25 0 L 25 0 L 25 0 A 25 25 0 0 1 1.5308084989341915e-15 25 L 0 25 L 1.5308084989341915e-15 25 A 25 25 0 0 1 -25 3.061616997868383e-15 L -25 0 L -25 3.061616997868383e-15 A 25 25 0 0 1 1.5308084989341915e-15 -25 Z" stroke-miterlimit="10" stroke-dasharray=""/></g><g><g transform="matrix(0.35,0,0,0.35,-11,-11)"><path fill="#fff" stroke="#fff" paint-order="fill stroke markers" d=" M 0 0 M 45.254 45.197 L 36.216 45.197 L 42.206 31.792 C 42.613 30.98 42.307 29.965 41.597 29.355 C 40.887 28.746 39.768 28.849 39.06 29.457 L 19.561 45.705 C 18.953 46.215 18.646 47.128 18.953 47.939 C 19.258 48.754 19.968 49.262 20.883 49.262 L 29.921 49.262 L 23.928 62.667 C 23.521 63.478 23.825 64.493 24.538 65.103 C 24.943 65.51 25.247 65.609 25.756 65.609 C 26.263 65.609 26.67 65.406 27.076 65.103 L 46.573 48.854 C 47.183 48.347 47.488 47.431 47.183 46.62 C 46.879 45.808 46.066 45.197 45.254 45.197 Z M 0 0 M 53.378 16.865 C 53.275 16.865 53.275 16.865 53.175 16.865 C 53.275 16.153 53.378 15.543 53.378 14.834 C 53.378 9.247 48.808 4.679 43.222 4.679 C 40.073 4.679 37.333 6.101 35.505 8.334 C 33.068 3.765 28.394 0.615 22.911 0.615 C 15.094 0.615 8.694 7.014 8.694 14.834 C 8.694 15.747 8.794 16.661 8.997 17.575 C 4.023 19.2 0.469 23.872 0.571 29.355 C 0.773 36.057 6.258 41.237 12.858 41.237 L 18.646 41.237 L 36.419 26.41 C 37.535 25.496 38.856 24.989 40.276 24.989 C 41.597 24.989 42.919 25.396 43.932 26.207 C 46.169 27.933 46.981 30.98 45.761 33.521 L 42.511 41.237 L 53.275 41.237 C 59.878 41.237 65.36 36.057 65.563 29.457 C 65.766 22.552 60.285 16.865 53.378 16.865 Z" stroke-miterlimit="10" stroke-width="2" stroke-dasharray=""/></g></g></g><g transform="matrix(1,0,0,1,224,6)"><g><path fill="white" stroke="white" paint-order="fill stroke markers" d=" M 9 0 L 11 0 L 10.999999999999998 0 A 9 9 0 0 1 20 9 L 20 11 L 20 11 A 9 9 0 0 1 11 20 L 9 20 L 9 20 A 9 9 0 0 1 0 11.000000000000002 L 0 9 L 0 9.000000000000002 A 9 9 0 0 1 8.999999999999998 0 Z" fill-opacity="0.001" stroke-miterlimit="10" stroke-opacity="0.001" stroke-dasharray=""/></g><g transform="matrix(2,0,0,2,0,0)"><path fill="#CCC" stroke="none" paint-order="stroke fill markers" d=" M 0 0 M 4.531 2.344 C 4.531 2.084 4.74 1.875 5 1.875 C 5.26 1.875 5.469 2.084 5.469 2.344 L 5.469 4.75 L 7.135 5.859 C 7.35 6.004 7.408 6.295 7.248 6.51 C 7.121 6.725 6.83 6.783 6.615 6.623 L 4.74 5.373 C 4.609 5.303 4.531 5.156 4.531 4.982 L 4.531 2.344 Z M 0 0 M 5 0 C 7.762 0 10 2.238 10 5 C 10 7.762 7.762 10 5 10 C 2.238 10 0 7.762 0 5 C 0 2.238 2.238 0 5 0 Z M 0 0 M 0.938 5 C 0.938 7.244 2.756 9.063 5 9.063 C 7.244 9.063 9.063 7.244 9.063 5 C 9.063 2.756 7.244 0.938 5 0.938 C 2.756 0.938 0.938 2.756 0.938 5 Z"/></g></g><g transform="matrix(1,0,0,1,80,31.5)"><text fill="#383B3D" stroke="none" font-family="Open Sans" font-size="12pt" font-style="normal" font-weight="normal" text-decoration="normal" x="46.24609375" y="12" text-anchor="middle" dominant-baseline="central">transporting</text></g></g><g id="_EBB2C4DD-2050-4763-BAD4-6E868C5F7048" transform="matrix(1,0,0,1,227,1314)"><g><path fill="#fff" stroke="#ccc" id="_EBB2C4DD-2050-4763-BAD4-6E868C5F7048?shapeType=BACKGROUND" paint-order="fill stroke markers" d=" M 0 5 L 0 5 L 0 5.000000000000001 A 5 5 0 0 1 5 0 L 245 0 L 245 0 L 245 0 A 5 5 0 0 1 250 5 L 250 85 L 250 85 L 250 85 A 5 5 0 0 1 245 90 L 5 90 L 5 90 L 5 90 A 5 5 0 0 1 0 85 Z" stroke-miterlimit="10" stroke-width="2" stroke-dasharray=""/></g><g transform="matrix(1,0,0,1,45,46)"><g id="_EBB2C4DD-2050-4763-BAD4-6E868C5F7048"><path fill="#009596" stroke="#d5d5d5" id="_EBB2C4DD-2050-4763-BAD4-6E868C5F7048" paint-order="fill stroke markers" d=" M 0 -25 L 0 -25 L 1.5308084989341915e-15 -25 A 25 25 0 0 1 25 0 L 25 0 L 25 0 A 25 25 0 0 1 1.5308084989341915e-15 25 L 0 25 L 1.5308084989341915e-15 25 A 25 25 0 0 1 -25 3.061616997868383e-15 L -25 0 L -25 3.061616997868383e-15 A 25 25 0 0 1 1.5308084989341915e-15 -25 Z" stroke-miterlimit="10" stroke-dasharray=""/></g><g><g transform="matrix(0.35,0,0,0.35,-11,-11)"><path fill="#fff" stroke="#fff" paint-order="fill stroke markers" d=" M 0 0 M 60.6 46.54 L 54.07 46.54 L 54.07 37.83 C 54.01 36.449999999999996 53.35 35.14 52.24 34.309999999999995 L 44.82 28.749999999999996 L 44.82 28.749999999999996 L 36.41 22.389999999999997 L 36.41 4.4 C 36.4 1.87 34.26 -0.17 31.69 0.01 C 29.44 0.17 27.6 2.23 27.6 4.49 L 27.6 22.41 L 19.19 28.72 L 19.19 28.72 L 11.770000000000001 34.269999999999996 C 10.660000000000002 35.099999999999994 10.010000000000002 36.41 9.940000000000001 37.79 L 9.940000000000001 46.5 L 3.4 46.5 C 0.45999999999999996 46.47 -1.02 50.03 1.06 52.11 L 12.07 63 C 13.36 64.29 15.45 64.29 16.75 63 L 27.759999999999998 52.11 C 29.839999999999996 50.15 28.369999999999997 46.59 25.419999999999998 46.64 L 18.75 46.64 L 18.75 40.01 C 18.75 40.01 26.97 33.93 32.03 30.14 C 36.99 33.87 45.230000000000004 40.06 45.27 40.04 L 45.27 46.67 L 38.6 46.67 C 35.660000000000004 46.620000000000005 34.18 50.18 36.260000000000005 52.14 L 47.27 63.03 C 48.56 64.32000000000001 50.650000000000006 64.32000000000001 51.95 63.03 L 62.96 52.14 C 65.04 50.06 63.56 46.5 60.620000000000005 46.53 Z" stroke-miterlimit="10" stroke-width="2" stroke-dasharray=""/></g></g></g><g transform="matrix(1,0,0,1,224,6)"><g><path fill="white" stroke="white" paint-order="fill stroke markers" d=" M 9 0 L 11 0 L 10.999999999999998 0 A 9 9 0 0 1 20 9 L 20 11 L 20 11 A 9 9 0 0 1 11 20 L 9 20 L 9 20 A 9 9 0 0 1 0 11.000000000000002 L 0 9 L 0 9.000000000000002 A 9 9 0 0 1 8.999999999999998 0 Z" fill-opacity="0.001" stroke-miterlimit="10" stroke-opacity="0.001" stroke-dasharray=""/></g><g transform="matrix(2,0,0,2,0,0)"><path fill="#CCC" stroke="none" paint-order="stroke fill markers" d=" M 0 0 M 7.382 2.142 L 9.781 4.542 C 9.921 4.683 10 4.876 10 5.076 C 10 5.274 9.921 5.467 9.781 5.608 L 7.382 8.008 C 7.256 8.132 7.088 8.2 6.912 8.2 C 6.547 8.2 6.25 7.903 6.25 7.538 L 6.25 6.326 L 3.75 6.326 C 3.405 6.326 3.126 6.046 3.126 5.7 L 3.126 4.45 C 3.126 4.105 3.405 3.826 3.75 3.826 L 6.25 3.826 L 6.25 2.612 C 6.25 2.247 6.547 1.95 6.912 1.95 C 7.088 1.95 7.256 2.02 7.382 2.142 Z M 0 0 M 3.126 1.95 L 1.876 1.95 C 1.53 1.95 1.25 2.23 1.25 2.576 L 1.25 7.576 C 1.25 7.92 1.53 8.2 1.876 8.2 L 3.126 8.2 C 3.47 8.2 3.75 8.48 3.75 8.826 C 3.75 9.17 3.47 9.45 3.126 9.45 L 1.876 9.45 C 0.84 9.45 0 8.61 0 7.576 L 0 2.576 C 0 1.54 0.84 0.7 1.876 0.7 L 3.126 0.7 C 3.47 0.7 3.75 0.98 3.75 1.326 C 3.75 1.67 3.47 1.95 3.126 1.95 Z"/></g></g><g transform="matrix(1,0,0,1,80,31.5)"><text fill="#383B3D" stroke="none" font-family="Open Sans" font-size="12pt" font-style="normal" font-weight="normal" text-decoration="normal" x="63.5234375" y="12" text-anchor="middle" dominant-baseline="central">unloading-switch</text></g></g><g id="_D71C0FEE-5F2F-40A3-8D27-8F14937D2A7F" transform="matrix(1,0,0,1,202,1531)"><g><path fill="#fff" stroke="#ccc" id="_D71C0FEE-5F2F-40A3-8D27-8F14937D2A7F?shapeType=BACKGROUND" paint-order="fill stroke markers" d=" M 0 0 L 46 0 L 46 46 L 0 46 Z" stroke-miterlimit="10" stroke-width="2" stroke-dasharray=""/></g><g transform="matrix(1,0,0,1,9,29)"><text fill="#929292" stroke="none" font-family="Open Sans" font-size="12pt" font-style="normal" font-weight="normal" text-decoration="normal" x="0" y="0" text-anchor="start" dominant-baseline="alphabetic">End</text></g></g><g id="_990A52F0-D02F-47D1-982C-FAFFE997863F" transform="matrix(1,0,0,1,404,1531)"><g><path fill="#fff" stroke="#ccc" id="_990A52F0-D02F-47D1-982C-FAFFE997863F?shapeType=BACKGROUND" paint-order="fill stroke markers" d=" M 0 5 L 0 5 L 0 5.000000000000001 A 5 5 0 0 1 5 0 L 245 0 L 245 0 L 245 0 A 5 5 0 0 1 250 5 L 250 85 L 250 85 L 250 85 A 5 5 0 0 1 245 90 L 5 90 L 5 90 L 5 90 A 5 5 0 0 1 0 85 Z" stroke-miterlimit="10" stroke-width="2" stroke-dasharray=""/></g><g transform="matrix(1,0,0,1,45,46)"><g id="_990A52F0-D02F-47D1-982C-FAFFE997863F"><path fill="#F4C145" stroke="#d5d5d5" id="_990A52F0-D02F-47D1-982C-FAFFE997863F" paint-order="fill stroke markers" d=" M 0 -25 L 0 -25 L 1.5308084989341915e-15 -25 A 25 25 0 0 1 25 0 L 25 0 L 25 0 A 25 25 0 0 1 1.5308084989341915e-15 25 L 0 25 L 1.5308084989341915e-15 25 A 25 25 0 0 1 -25 3.061616997868383e-15 L -25 0 L -25 3.061616997868383e-15 A 25 25 0 0 1 1.5308084989341915e-15 -25 Z" stroke-miterlimit="10" stroke-dasharray=""/></g><g><g transform="matrix(0.35,0,0,0.35,-11,-11)"><path fill="#fff" stroke="#fff" paint-order="fill stroke markers" d=" M 0 0 M 45.254 45.197 L 36.216 45.197 L 42.206 31.792 C 42.613 30.98 42.307 29.965 41.597 29.355 C 40.887 28.746 39.768 28.849 39.06 29.457 L 19.561 45.705 C 18.953 46.215 18.646 47.128 18.953 47.939 C 19.258 48.754 19.968 49.262 20.883 49.262 L 29.921 49.262 L 23.928 62.667 C 23.521 63.478 23.825 64.493 24.538 65.103 C 24.943 65.51 25.247 65.609 25.756 65.609 C 26.263 65.609 26.67 65.406 27.076 65.103 L 46.573 48.854 C 47.183 48.347 47.488 47.431 47.183 46.62 C 46.879 45.808 46.066 45.197 45.254 45.197 Z M 0 0 M 53.378 16.865 C 53.275 16.865 53.275 16.865 53.175 16.865 C 53.275 16.153 53.378 15.543 53.378 14.834 C 53.378 9.247 48.808 4.679 43.222 4.679 C 40.073 4.679 37.333 6.101 35.505 8.334 C 33.068 3.765 28.394 0.615 22.911 0.615 C 15.094 0.615 8.694 7.014 8.694 14.834 C 8.694 15.747 8.794 16.661 8.997 17.575 C 4.023 19.2 0.469 23.872 0.571 29.355 C 0.773 36.057 6.258 41.237 12.858 41.237 L 18.646 41.237 L 36.419 26.41 C 37.535 25.496 38.856 24.989 40.276 24.989 C 41.597 24.989 42.919 25.396 43.932 26.207 C 46.169 27.933 46.981 30.98 45.761 33.521 L 42.511 41.237 L 53.275 41.237 C 59.878 41.237 65.36 36.057 65.563 29.457 C 65.766 22.552 60.285 16.865 53.378 16.865 Z" stroke-miterlimit="10" stroke-width="2" stroke-dasharray=""/></g></g></g><g transform="matrix(1,0,0,1,80,31.5)"><text fill="#383B3D" stroke="none" font-family="Open Sans" font-size="12pt" font-style="normal" font-weight="normal" text-decoration="normal" x="37.34375" y="12" text-anchor="middle" dominant-baseline="central">unloading</text></g></g><g id="startEdge"><g><path fill="none" stroke="#757575" paint-order="fill stroke markers" d=" M 377 100 L 377 110 L 377 174.66666666666669 L 377 217" stroke-miterlimit="10" stroke-width="2" stroke-dasharray=""/></g><g transform="matrix(1,0,0,1,377,100)"/><g transform="matrix(-1,1.2246467991473532e-16,-1.2246467991473532e-16,-1,381,229)"><path fill="#757575" stroke="#757575" paint-order="fill stroke markers" d=" M 8 15 L 0 15 L 4 3 Z" stroke-miterlimit="10" stroke-width="2" stroke-dasharray=""/></g><g/><g transform="matrix(1,0,0,1,387,164.5)"/></g><g id="_88611433-93D0-4EBB-A0D5-66AB36ECC486"><g><path fill="none" stroke="#757575" paint-order="fill stroke markers" d=" M 377 319 L 377 329 L 377 392.3333333333333 L 377 434" stroke-miterlimit="10" stroke-width="2" stroke-dasharray=""/></g><g transform="matrix(1,0,0,1,377,319)"/><g transform="matrix(-1,1.2246467991473532e-16,-1.2246467991473532e-16,-1,381,446)"><path fill="#757575" stroke="#757575" paint-order="fill stroke markers" d=" M 8 15 L 0 15 L 4 3 Z" stroke-miterlimit="10" stroke-width="2" stroke-dasharray=""/></g><g/><g transform="matrix(1,0,0,1,387,382.5)"/></g><g id="_EDD0C31D-7B74-44A0-8C7B-F38117E7294B"><g><path fill="none" stroke="#757575" paint-order="fill stroke markers" d=" M 377 536 L 377 546 L 377 609.3333333333334 L 352 609.3333333333334 L 352 651" stroke-miterlimit="10" stroke-width="2" stroke-dasharray=""/></g><g transform="matrix(1,0,0,1,377,536)"/><g transform="matrix(-1,1.2246467991473532e-16,-1.2246467991473532e-16,-1,356,663)"><path fill="#757575" stroke="#757575" paint-order="fill stroke markers" d=" M 8 15 L 0 15 L 4 3 Z" stroke-miterlimit="10" stroke-width="2" stroke-dasharray=""/></g><g/><g transform="matrix(1,0,0,1,361.8117046210498,597.5685620824705)"/></g><g id="_FAEDE376-37EB-4C5B-BED1-43524450DE0B"><g><path fill="none" stroke="#12DE70" paint-order="fill stroke markers" d=" M 385.2267441860465 753 L 385.2267441860465 763 L 385.2267441860465 811.1213962427925 L 479 811.1213962427925 L 479 868" stroke-miterlimit="10" stroke-width="2" stroke-dasharray=""/></g><g transform="matrix(1,0,0,1,385.2267441860465,753)"/><g transform="matrix(-1,1.2246467991473532e-16,-1.2246467991473532e-16,-1,483,880)"><path fill="#12DE70" stroke="#12DE70" paint-order="fill stroke markers" d=" M 8 15 L 0 15 L 4 3 Z" stroke-miterlimit="10" stroke-width="2" stroke-dasharray=""/></g><g/><g transform="matrix(1,0,0,1,393.27142069666934,810.5600353671564)"/></g><g id="_D044ADD3-7B5B-4B9C-8EFA-49DD7C1D3B30"><g><path fill="none" stroke="#757575" paint-order="fill stroke markers" d=" M 479 970 L 479 980 L 479 1028.1213962427926 L 385.2267441860465 1028.1213962427926 L 385.2267441860465 1085" stroke-miterlimit="10" stroke-width="2" stroke-dasharray=""/></g><g transform="matrix(1,0,0,1,479,970)"/><g transform="matrix(-1,1.2246467991473532e-16,-1.2246467991473532e-16,-1,389.2267441860465,1097)"><path fill="#757575" stroke="#757575" paint-order="fill stroke markers" d=" M 8 15 L 0 15 L 4 3 Z" stroke-miterlimit="10" stroke-width="2" stroke-dasharray=""/></g><g/><g transform="matrix(1,0,0,1,393.27142069666934,1027.5600353671564)"/></g><g id="_31DF8842-0CF5-47AC-81BB-1E422F864996"><g><path fill="none" stroke="#757575" paint-order="fill stroke markers" d=" M 352 1187 L 352 1197 L 352 1260.3333333333333 L 352 1302" stroke-miterlimit="10" stroke-width="2" stroke-dasharray=""/></g><g transform="matrix(1,0,0,1,352,1187)"/><g transform="matrix(-1,1.2246467991473532e-16,-1.2246467991473532e-16,-1,356,1314)"><path fill="#757575" stroke="#757575" paint-order="fill stroke markers" d=" M 8 15 L 0 15 L 4 3 Z" stroke-miterlimit="10" stroke-width="2" stroke-dasharray=""/></g><g/><g transform="matrix(1,0,0,1,362,1250.5)"/></g><g id="_72C28768-EBB9-49C0-B286-BB5BE6E3C39D"><g><path fill="none" stroke="#12DE70" paint-order="fill stroke markers" d=" M 398.3081395348837 1404 L 398.3081395348837 1414 L 398.3081395348837 1448.5277814849414 L 529 1448.5277814849414 L 529 1519" stroke-miterlimit="10" stroke-width="2" stroke-dasharray=""/></g><g transform="matrix(1,0,0,1,398.3081395348837,1404)"/><g transform="matrix(-1,1.2246467991473532e-16,-1.2246467991473532e-16,-1,533,1531)"><path fill="#12DE70" stroke="#12DE70" paint-order="fill stroke markers" d=" M 8 15 L 0 15 L 4 3 Z" stroke-miterlimit="10" stroke-width="2" stroke-dasharray=""/></g><g/><g transform="matrix(1,0,0,1,405.27718747859205,1460.3283634532768)"/></g><g id="_8E52983A-566C-4307-A9BF-828ECB7908AD"><g><path fill="none" stroke="#757575" paint-order="fill stroke markers" d=" M 593.44 1531 L 593.44 1521 L 593.44 1451 L 708 1451 L 708 1122 L 708 905 L 708 578 L 708 523.8549848942598 L 514 523.8549848942598" stroke-miterlimit="10" stroke-width="2" stroke-dasharray=""/></g><g transform="matrix(1,0,0,1,593.44,1531)"/><g transform="matrix(-1.8369701987210297e-16,-1,1,-1.8369701987210297e-16,502,527.8549848942598)"><path fill="#757575" stroke="#757575" paint-order="fill stroke markers" d=" M 8 15 L 0 15 L 4 3 Z" stroke-miterlimit="10" stroke-width="2" stroke-dasharray=""/></g><g/><g transform="matrix(1,0,0,1,718,1286.5)"/></g><g id="_8CC18C2C-054A-469B-830E-5BB96CBA7DCA"><g><path fill="none" stroke="#757575" paint-order="fill stroke markers" d=" M 318.7732558139535 1404 L 318.7732558139535 1414 L 318.7732558139535 1462.1213962427926 L 225 1462.1213962427926 L 225 1519" stroke-miterlimit="10" stroke-width="2" stroke-dasharray=""/></g><g transform="matrix(1,0,0,1,318.7732558139535,1404)"/><g transform="matrix(-1,1.2246467991473532e-16,-1.2246467991473532e-16,-1,229,1531)"><path fill="#757575" stroke="#757575" paint-order="fill stroke markers" d=" M 8 15 L 0 15 L 4 3 Z" stroke-miterlimit="10" stroke-width="2" stroke-dasharray=""/></g><g transform="matrix(1,0,0,1,228.20348429125409,1453.6213962427926)"><path fill="gray" stroke="gray" paint-order="fill stroke markers" d=" M 3 0 L 84.36628723144531 0 L 84.36628723144531 0 A 3 3 0 0 1 87.36628723144531 3 L 87.36628723144531 14 L 87.36628723144531 14 A 3 3 0 0 1 84.36628723144531 17 L 3 17 L 3 17 A 3 3 0 0 1 0 14 L 0 3 L 0 3.0000000000000004 A 3 3 0 0 1 2.9999999999999996 0 Z" stroke-miterlimit="10" stroke-dasharray=""/></g><g transform="matrix(1,0,0,1,231.20348429125409,1456.6213962427926)"><text fill="white" stroke="none" font-family="Verdana" font-size="10pt" font-style="normal" font-weight="normal" text-decoration="normal" x="0" y="8.8" text-anchor="start" dominant-baseline="alphabetic">case-jobD...                </text><path fill="none" stroke="none"/><text fill="none" stroke="white" font-family="Verdana" font-size="10pt" font-style="normal" font-weight="normal" text-decoration="normal" x="0" y="8.8" text-anchor="start" dominant-baseline="alphabetic" stroke-miterlimit="10" stroke-dasharray="">case-jobD...                </text></g></g><g id="_5502C007-2D23-4467-BAEA-263807E5579E"><g><path fill="none" stroke="#757575" paint-order="fill stroke markers" d=" M 305.6918604651163 753 L 305.6918604651163 763 L 305.6918604651163 797.5277814849414 L 175 797.5277814849414 L 175 868" stroke-miterlimit="10" stroke-width="2" stroke-dasharray=""/></g><g transform="matrix(1,0,0,1,305.6918604651163,753)"/><g transform="matrix(-1,1.2246467991473532e-16,-1.2246467991473532e-16,-1,179,880)"><path fill="#757575" stroke="#757575" paint-order="fill stroke markers" d=" M 8 15 L 0 15 L 4 3 Z" stroke-miterlimit="10" stroke-width="2" stroke-dasharray=""/></g><g transform="matrix(1,0,0,1,203.01535619691361,789.0277814849414)"><path fill="gray" stroke="gray" paint-order="fill stroke markers" d=" M 3 0 L 71.66114807128906 0 L 71.66114807128906 0 A 3 3 0 0 1 74.66114807128906 3 L 74.66114807128906 14 L 74.66114807128906 14 A 3 3 0 0 1 71.66114807128906 17 L 3 17 L 3 17 A 3 3 0 0 1 0 14 L 0 3 L 0 3.0000000000000004 A 3 3 0 0 1 2.9999999999999996 0 Z" stroke-miterlimit="10" stroke-dasharray=""/></g><g transform="matrix(1,0,0,1,206.01535619691361,792.0277814849414)"><text fill="white" stroke="none" font-family="Verdana" font-size="10pt" font-style="normal" font-weight="normal" text-decoration="normal" x="0" y="8.8" text-anchor="start" dominant-baseline="alphabetic">case-done                        </text><path fill="none" stroke="none"/><text fill="none" stroke="white" font-family="Verdana" font-size="10pt" font-style="normal" font-weight="normal" text-decoration="normal" x="0" y="8.8" text-anchor="start" dominant-baseline="alphabetic" stroke-miterlimit="10" stroke-dasharray="">case-done                        </text></g></g><g id="_3CB2106F-0FFA-4283-A84D-3E1D45D60636"><g><path fill="none" stroke="#757575" paint-order="fill stroke markers" d=" M 352 753 L 352 763 L 352 835 L 658 835 L 658 945.2828917826673 L 396.85342019543975 945.2828917826673 L 396.85342019543975 1085" stroke-miterlimit="10" stroke-width="2" stroke-dasharray=""/></g><g transform="matrix(1,0,0,1,352,753)"/><g transform="matrix(-1,1.2246467991473532e-16,-1.2246467991473532e-16,-1,400.85342019543975,1097)"><path fill="#757575" stroke="#757575" paint-order="fill stroke markers" d=" M 8 15 L 0 15 L 4 3 Z" stroke-miterlimit="10" stroke-width="2" stroke-dasharray=""/></g><g transform="matrix(1,0,0,1,468.5578842163086,826.5)"><path fill="gray" stroke="gray" paint-order="fill stroke markers" d=" M 3 0 L 69.88423156738281 0 L 69.88423156738281 0 A 3 3 0 0 1 72.88423156738281 3 L 72.88423156738281 14 L 72.88423156738281 14 A 3 3 0 0 1 69.88423156738281 17 L 3 17 L 3 17 A 3 3 0 0 1 0 14 L 0 3 L 0 3.0000000000000004 A 3 3 0 0 1 2.9999999999999996 0 Z" stroke-miterlimit="10" stroke-dasharray=""/></g><g transform="matrix(1,0,0,1,471.5578842163086,829.5)"><text fill="white" stroke="none" font-family="Verdana" font-size="10pt" font-style="normal" font-weight="normal" text-decoration="normal" x="0" y="8.8" text-anchor="start" dominant-baseline="alphabetic">case-valid                            </text><path fill="none" stroke="none"/><text fill="none" stroke="white" font-family="Verdana" font-size="10pt" font-style="normal" font-weight="normal" text-decoration="normal" x="0" y="8.8" text-anchor="start" dominant-baseline="alphabetic" stroke-miterlimit="10" stroke-dasharray="">case-valid                            </text></g></g></g></g></svg>