<svg version="1.1" xmlns="http://www.w3.org/2000/svg" xmlns:xlink="http://www.w3.org/1999/xlink" width="350" height="190" viewBox="0 0 350 190"><defs/><g transform="matrix(1,0,0,1,0,0)"><g><g><g><path fill="none" stroke="#d3d3d3" paint-order="fill stroke markers" d=" M 0 0 L 1200 0" stroke-miterlimit="10" stroke-opacity="0.8" stroke-dasharray="5"/></g><g><path fill="none" stroke="#d3d3d3" paint-order="fill stroke markers" d=" M 0 0 L 0 800" stroke-miterlimit="10" stroke-opacity="0.8" stroke-dasharray="5"/></g></g><g id="_53526E5A-B503-4AC2-8CAB-B07F288549F9" transform="matrix(1,0,0,1,50,50)"><g><path fill="#E7F1FA" stroke="#0066CC" id="_53526E5A-B503-4AC2-8CAB-B07F288549F9?shapeType=BACKGROUND" paint-order="fill stroke markers" d=" M 0 5 L 0 5 L 0 5.000000000000001 A 5 5 0 0 1 5 0 L 245 0 L 245 0 L 245 0 A 5 5 0 0 1 250 5 L 250 85 L 250 85 L 250 85 A 5 5 0 0 1 245 90 L 5 90 L 5 90 L 5 90 A 5 5 0 0 1 0 85 Z" stroke-miterlimit="10" stroke-width="2" stroke-dasharray=""/></g><g transform="matrix(1,0,0,1,45,46)"><g id="_53526E5A-B503-4AC2-8CAB-B07F288549F9"><path fill="#5752D1" stroke="#d5d5d5" id="_53526E5A-B503-4AC2-8CAB-B07F288549F9" paint-order="fill stroke markers" d=" M 0 -25 L 0 -25 L 1.5308084989341915e-15 -25 A 25 25 0 0 1 25 0 L 25 0 L 25 0 A 25 25 0 0 1 1.5308084989341915e-15 25 L 0 25 L 1.5308084989341915e-15 25 A 25 25 0 0 1 -25 3.061616997868383e-15 L -25 0 L -25 3.061616997868383e-15 A 25 25 0 0 1 1.5308084989341915e-15 -25 Z" stroke-miterlimit="10" stroke-dasharray=""/></g><g><g transform="matrix(0.35,0,0,0.35,-11,-11)"><path fill="#fff" stroke="#fff" paint-order="fill stroke markers" d=" M 0 0 M 54.24 53.11 C 57.95 48.34 60.160000000000004 42.34 60.160000000000004 35.83 C 60.160000000000004 20.269999999999996 47.550000000000004 7.659999999999997 31.990000000000002 7.659999999999997 C 16.43 7.659999999999997 3.83 20.27 3.83 35.83 C 3.83 42.32 6.02 48.29 9.7 53.05 L 7.17 55.58 C 5.54 57.21 5.37 60.04 6.89 61.78 C 8.629999999999999 63.78 11.649999999999999 63.85 13.48 62.02 L 16.28 59.220000000000006 C 20.770000000000003 62.24000000000001 26.18 64.01 31.990000000000002 64.01 C 37.800000000000004 64.01 43.160000000000004 62.260000000000005 47.64 59.27 L 50.39 62.02 C 52.02 63.650000000000006 54.85 63.82 56.59 62.300000000000004 C 58.59 60.56 58.660000000000004 57.540000000000006 56.830000000000005 55.71000000000001 L 54.24000000000001 53.120000000000005 Z M 0 0 M 41.150000000000006 45 L 30.560000000000006 37.94 C 29.820000000000007 37.54 29.380000000000006 36.72 29.380000000000006 35.83 L 29.280000000000005 20.83 C 29.280000000000005 19.36 30.560000000000006 18.18 31.930000000000003 18.18 C 33.5 18.18 34.68000000000001 19.36 34.68000000000001 20.83 L 34.68000000000001 34.41 L 44.09 40.669999999999995 C 45.300000000000004 41.489999999999995 45.63 43.129999999999995 44.730000000000004 44.339999999999996 C 44.010000000000005 45.55 42.370000000000005 45.879999999999995 41.160000000000004 44.98 M 23.86 3.69 C 19.89 -0.5 13.34 -1.27 8.47 2.14 C 3.6000000000000005 5.550000000000001 2.080000000000001 11.96 4.66 17.13 L 23.86 3.69 M 40.14 3.69 C 44.11 -0.5000000000000004 50.66 -1.2600000000000002 55.53 2.15 C 60.4 5.5600000000000005 61.92 11.97 59.34 17.14 L 40.14 3.69 Z" stroke-miterlimit="10" stroke-width="2" stroke-dasharray=""/></g></g></g><g transform="matrix(1,0,0,1,224,6)"><g><path fill="white" stroke="white" paint-order="fill stroke markers" d=" M 9 0 L 11 0 L 10.999999999999998 0 A 9 9 0 0 1 20 9 L 20 11 L 20 11 A 9 9 0 0 1 11 20 L 9 20 L 9 20 A 9 9 0 0 1 0 11.000000000000002 L 0 9 L 0 9.000000000000002 A 9 9 0 0 1 8.999999999999998 0 Z" fill-opacity="0.001" stroke-miterlimit="10" stroke-opacity="0.001" stroke-dasharray=""/></g><g transform="matrix(2,0,0,2,0,0)"><path fill="#CCC" stroke="none" paint-order="stroke fill markers" d=" M 0 0 M 4.531 2.344 C 4.531 2.084 4.74 1.875 5 1.875 C 5.26 1.875 5.469 2.084 5.469 2.344 L 5.469 4.75 L 7.135 5.859 C 7.35 6.004 7.408 6.295 7.248 6.51 C 7.121 6.725 6.83 6.783 6.615 6.623 L 4.74 5.373 C 4.609 5.303 4.531 5.156 4.531 4.982 L 4.531 2.344 Z M 0 0 M 5 0 C 7.762 0 10 2.238 10 5 C 10 7.762 7.762 10 5 10 C 2.238 10 0 7.762 0 5 C 0 2.238 2.238 0 5 0 Z M 0 0 M 0.938 5 C 0.938 7.244 2.756 9.063 5 9.063 C 7.244 9.063 9.063 7.244 9.063 5 C 9.063 2.756 7.244 0.938 5 0.938 C 2.756 0.938 0.938 2.756 0.938 5 Z"/></g></g><g transform="matrix(1,0,0,1,80,24)"><text fill="#383B3D" stroke="none" font-family="Open Sans" font-size="12pt" font-style="normal" font-weight="normal" text-decoration="normal" x="50.19140625" y="12" text-anchor="middle" dominant-baseline="central">Unique State </text><text fill="#383B3D" stroke="none" font-family="Open Sans" font-size="12pt" font-style="normal" font-weight="normal" text-decoration="normal" x="50.19140625" y="27" text-anchor="middle" dominant-baseline="central">       name       </text></g></g></g></g></svg>