<?xml version="1.0" encoding="us-ascii" standalone="no"?><svg xmlns="http://www.w3.org/2000/svg" xmlns:xlink="http://www.w3.org/1999/xlink" contentStyleType="text/css" height="418px" preserveAspectRatio="none" style="width:2854px;height:418px;background:#FFFFFF;" version="1.1" viewBox="0 0 2854 418" width="2854px" zoomAndPan="magnify"><defs/><g><path d="M19.5,76.5 L581,76.5 A12.5,12.5 0 0 1 593.5,89 L593.5,105.1211 L7,105.1211 L7,89 A12.5,12.5 0 0 1 19.5,76.5 " fill="#F1F1F1" style="stroke:#F1F1F1;stroke-width:1.0;"/><rect fill="none" height="266.2031" rx="12.5" ry="12.5" style="stroke:#181818;stroke-width:0.5;" width="586.5" x="7" y="76.5"/><line style="stroke:#181818;stroke-width:0.5;" x1="7" x2="593.5" y1="105.1211" y2="105.1211"/><text fill="#000000" font-family="sans-serif" font-size="14" lengthAdjust="spacing" textLength="47" x="276.75" y="96.6074">camera</text><g id="camera.0e0e734a_1741_408c_a598_f574e1c25a76_idle"><rect fill="#F1F1F1" height="50" rx="12.5" ry="12.5" style="stroke:#181818;stroke-width:0.5;" width="50" x="155.5" y="173.1211"/><line style="stroke:#181818;stroke-width:0.5;" x1="155.5" x2="205.5" y1="201.7422" y2="201.7422"/><text fill="#000000" font-family="sans-serif" font-size="14" lengthAdjust="spacing" textLength="22" x="169.5" y="193.2285">idle</text></g><ellipse cx="180.5" cy="126.1211" fill="#222222" rx="10" ry="10" style="stroke:#222222;stroke-width:1.0;"/><g id="camera.0e0e734a_1741_408c_a598_f574e1c25a76_notifyPersonDetector"><rect fill="#F1F1F1" height="54.582" rx="12.5" ry="12.5" style="stroke:#181818;stroke-width:0.5;" width="323" x="19" y="278.1211"/><line style="stroke:#181818;stroke-width:0.5;" x1="19" x2="342" y1="306.7422" y2="306.7422"/><text fill="#000000" font-family="sans-serif" font-size="14" lengthAdjust="spacing" textLength="133" x="114" y="298.2285">notifyPersonDetector</text><text fill="#000000" font-family="sans-serif" font-size="12" lengthAdjust="spacing" textLength="32" x="24" y="324.6914">entry /</text><text fill="#9B59B6" font-family="sans-serif" font-size="12" lengthAdjust="spacing" textLength="265" x="59" y="324.6914">Raise{external_event_checkIfPersonsInImage}()</text><text fill="#000000" font-family="sans-serif" font-size="12" lengthAdjust="spacing" textLength="3" x="324" y="324.6914">;</text></g><!--link *start*camera to 0e0e734a_1741_408c_a598_f574e1c25a76_idle--><g id="link_*start*camera_0e0e734a_1741_408c_a598_f574e1c25a76_idle"><path d="M180.5,136.2711 C180.5,145.5411 180.5,154.2611 180.5,166.9011 " fill="none" id="*start*camera-to-0e0e734a_1741_408c_a598_f574e1c25a76_idle" style="stroke:#181818;stroke-width:1.0;"/><polygon fill="#181818" points="180.5,172.9011,184.5,163.9011,180.5,167.9011,176.5,163.9011,180.5,172.9011" style="stroke:#181818;stroke-width:1.0;"/></g><!--link 0e0e734a_1741_408c_a598_f574e1c25a76_idle to 0e0e734a_1741_408c_a598_f574e1c25a76_idle--><g id="link_0e0e734a_1741_408c_a598_f574e1c25a76_idle_0e0e734a_1741_408c_a598_f574e1c25a76_idle"><path d="M205.68,190.2811 C215.41,189.9311 223.5,192.5411 223.5,198.1211 C223.5,203.7011 221.4061,206.5268 211.6761,206.1768 " fill="none" id="0e0e734a_1741_408c_a598_f574e1c25a76_idle-to-0e0e734a_1741_408c_a598_f574e1c25a76_idle" style="stroke:#181818;stroke-width:1.0;"/><polygon fill="#181818" points="205.68,205.9611,214.5304,210.282,210.6768,206.1408,214.818,202.2872,205.68,205.9611" style="stroke:#181818;stroke-width:1.0;"/><text fill="#000000" font-family="sans-serif" font-size="13" font-weight="bold" lengthAdjust="spacing" textLength="90" x="359" y="195.1494">event_capture</text><text fill="#000000" font-family="sans-serif" font-size="13" lengthAdjust="spacing" textLength="4" x="229.5" y="212.4404">/</text><text fill="#1F618D" font-family="sans-serif" font-size="13" lengthAdjust="spacing" textLength="337" x="237.5" y="212.4404">Invoke{camera.capture}([{video_number = 1}, {delay = 30}])</text><text fill="#000000" font-family="sans-serif" font-size="13" lengthAdjust="spacing" textLength="4" x="574.5" y="212.4404">;</text></g><!--link 0e0e734a_1741_408c_a598_f574e1c25a76_idle to 0e0e734a_1741_408c_a598_f574e1c25a76_notifyPersonDetector--><g id="link_0e0e734a_1741_408c_a598_f574e1c25a76_idle_0e0e734a_1741_408c_a598_f574e1c25a76_notifyPersonDetector"><path d="M155.42,201.6711 C131.13,205.6211 95.55,215.6611 78.5,241.1211 C68.34,256.2911 71.905,265.4141 87.755,274.9241 " fill="none" id="0e0e734a_1741_408c_a598_f574e1c25a76_idle-to-0e0e734a_1741_408c_a598_f574e1c25a76_notifyPersonDetector" style="stroke:#181818;stroke-width:1.0;"/><polygon fill="#181818" points="92.9,278.0111,87.2405,269.9507,88.6125,275.4386,83.1246,276.8106,92.9,278.0111" style="stroke:#181818;stroke-width:1.0;"/><text fill="#000000" font-family="sans-serif" font-size="13" font-weight="bold" lengthAdjust="spacing" textLength="189" x="79.5" y="256.1494">event_checkIfPersonsInImage</text></g><!--link 0e0e734a_1741_408c_a598_f574e1c25a76_notifyPersonDetector to 0e0e734a_1741_408c_a598_f574e1c25a76_idle--><g id="link_0e0e734a_1741_408c_a598_f574e1c25a76_notifyPersonDetector_0e0e734a_1741_408c_a598_f574e1c25a76_idle"><path d="M254.79,277.9911 C269.98,268.2211 278.85,255.8711 269.5,241.1211 C255.6,219.1911 232.6636,209.8942 211.5836,204.8242 " fill="none" id="0e0e734a_1741_408c_a598_f574e1c25a76_notifyPersonDetector-to-0e0e734a_1741_408c_a598_f574e1c25a76_idle" style="stroke:#181818;stroke-width:1.0;"/><polygon fill="#181818" points="205.75,203.4211,213.5651,209.4148,210.6114,204.5903,215.4358,201.6366,205.75,203.4211" style="stroke:#181818;stroke-width:1.0;"/></g><path d="M640.5,7 L1719.78,7 A12.5,12.5 0 0 1 1732.28,19.5 L1732.28,35.6211 L628,35.6211 L628,19.5 A12.5,12.5 0 0 1 640.5,7 " fill="#F1F1F1" style="stroke:#F1F1F1;stroke-width:1.0;"/><rect fill="none" height="405.2031" rx="12.5" ry="12.5" style="stroke:#181818;stroke-width:0.5;" width="1104.28" x="628" y="7"/><line style="stroke:#181818;stroke-width:0.5;" x1="628" x2="1732.28" y1="35.6211" y2="35.6211"/><text fill="#000000" font-family="sans-serif" font-size="14" lengthAdjust="spacing" textLength="98" x="1131.14" y="27.1074">personDetector</text><g id="personDetector.88493cd6_cf20_4acf_baad_b117ac20500f_idle"><rect fill="#F1F1F1" height="50" rx="12.5" ry="12.5" style="stroke:#181818;stroke-width:0.5;" width="50" x="890.28" y="103.6211"/><line style="stroke:#181818;stroke-width:0.5;" x1="890.28" x2="940.28" y1="132.2422" y2="132.2422"/><text fill="#000000" font-family="sans-serif" font-size="14" lengthAdjust="spacing" textLength="22" x="904.28" y="123.7285">idle</text></g><ellipse cx="915.28" cy="56.6211" fill="#222222" rx="10" ry="10" style="stroke:#222222;stroke-width:1.0;"/><g id="personDetector.88493cd6_cf20_4acf_baad_b117ac20500f_decide"><rect fill="#F1F1F1" height="50" rx="12.5" ry="12.5" style="stroke:#181818;stroke-width:0.5;" width="62" x="884.28" y="225.6211"/><line style="stroke:#181818;stroke-width:0.5;" x1="884.28" x2="946.28" y1="254.2422" y2="254.2422"/><text fill="#000000" font-family="sans-serif" font-size="14" lengthAdjust="spacing" textLength="42" x="894.28" y="245.7285">decide</text></g><g id="personDetector.88493cd6_cf20_4acf_baad_b117ac20500f_foundPersons"><rect fill="#F1F1F1" height="54.582" rx="12.5" ry="12.5" style="stroke:#181818;stroke-width:0.5;" width="281" x="890.78" y="347.6211"/><line style="stroke:#181818;stroke-width:0.5;" x1="890.78" x2="1171.78" y1="376.2422" y2="376.2422"/><text fill="#000000" font-family="sans-serif" font-size="14" lengthAdjust="spacing" textLength="88" x="987.28" y="367.7285">foundPersons</text><text fill="#000000" font-family="sans-serif" font-size="12" lengthAdjust="spacing" textLength="32" x="895.78" y="394.1914">entry /</text><text fill="#9B59B6" font-family="sans-serif" font-size="12" lengthAdjust="spacing" textLength="223" x="930.78" y="394.1914">Raise{external_event_personDetected}()</text><text fill="#000000" font-family="sans-serif" font-size="12" lengthAdjust="spacing" textLength="3" x="1153.78" y="394.1914">;</text></g><!--link *start*personDetector to 88493cd6_cf20_4acf_baad_b117ac20500f_idle--><g id="link_*start*personDetector_88493cd6_cf20_4acf_baad_b117ac20500f_idle"><path d="M915.28,66.7711 C915.28,76.0411 915.28,84.7611 915.28,97.4011 " fill="none" id="*start*personDetector-to-88493cd6_cf20_4acf_baad_b117ac20500f_idle" style="stroke:#181818;stroke-width:1.0;"/><polygon fill="#181818" points="915.28,103.4011,919.28,94.4011,915.28,98.4011,911.28,94.4011,915.28,103.4011" style="stroke:#181818;stroke-width:1.0;"/></g><!--link 88493cd6_cf20_4acf_baad_b117ac20500f_idle to 88493cd6_cf20_4acf_baad_b117ac20500f_idle--><g id="link_88493cd6_cf20_4acf_baad_b117ac20500f_idle_88493cd6_cf20_4acf_baad_b117ac20500f_idle"><path d="M940.46,120.7811 C950.19,120.4311 958.28,123.0411 958.28,128.6211 C958.28,134.2011 956.1861,137.0268 946.4561,136.6768 " fill="none" id="88493cd6_cf20_4acf_baad_b117ac20500f_idle-to-88493cd6_cf20_4acf_baad_b117ac20500f_idle" style="stroke:#181818;stroke-width:1.0;"/><polygon fill="#181818" points="940.46,136.4611,949.3104,140.782,945.4568,136.6408,949.598,132.7872,940.46,136.4611" style="stroke:#181818;stroke-width:1.0;"/><text fill="#000000" font-family="sans-serif" font-size="13" font-weight="bold" lengthAdjust="spacing" textLength="249" x="1216.28" y="125.6494">external_event_checkIfPersonsInImage</text><text fill="#000000" font-family="sans-serif" font-size="13" lengthAdjust="spacing" textLength="4" x="964.28" y="142.9404">/</text><text fill="#27AE60" font-family="sans-serif" font-size="13" lengthAdjust="spacing" textLength="344" x="972.28" y="142.9404">Assign{personDetection_image = $personDetection_input}()</text><text fill="#000000" font-family="sans-serif" font-size="13" lengthAdjust="spacing" textLength="4" x="1316.28" y="142.9404">;</text><text fill="#1F618D" font-family="sans-serif" font-size="13" lengthAdjust="spacing" textLength="389" x="1324.28" y="142.9404">Invoke{personDetection.detect}([{image = personDetection_image}])</text><text fill="#000000" font-family="sans-serif" font-size="13" lengthAdjust="spacing" textLength="4" x="1713.28" y="142.9404">;</text></g><!--link 88493cd6_cf20_4acf_baad_b117ac20500f_idle to 88493cd6_cf20_4acf_baad_b117ac20500f_decide--><g id="link_88493cd6_cf20_4acf_baad_b117ac20500f_idle_88493cd6_cf20_4acf_baad_b117ac20500f_decide"><path d="M889.96,130.4911 C836.96,132.8911 717.18,141.6011 692.28,171.6211 C639,235.8711 805.3422,247.0991 878.2722,249.0691 " fill="none" id="88493cd6_cf20_4acf_baad_b117ac20500f_idle-to-88493cd6_cf20_4acf_baad_b117ac20500f_decide" style="stroke:#181818;stroke-width:1.0;"/><polygon fill="#181818" points="884.27,249.2311,875.3813,244.9895,879.2718,249.0961,875.1653,252.9866,884.27,249.2311" style="stroke:#181818;stroke-width:1.0;"/><text fill="#000000" font-family="sans-serif" font-size="13" font-weight="bold" lengthAdjust="spacing" textLength="199" x="693.28" y="195.1494">event_decideIfPersonsDetected</text></g><!--link 88493cd6_cf20_4acf_baad_b117ac20500f_decide to 88493cd6_cf20_4acf_baad_b117ac20500f_foundPersons--><g id="link_88493cd6_cf20_4acf_baad_b117ac20500f_decide_88493cd6_cf20_4acf_baad_b117ac20500f_foundPersons"><path d="M910.19,275.6511 C908.06,292.3111 908.22,314.1911 919.28,329.6211 C924.34,336.6811 925.7888,339.1743 932.8988,344.1643 " fill="none" id="88493cd6_cf20_4acf_baad_b117ac20500f_decide-to-88493cd6_cf20_4acf_baad_b117ac20500f_foundPersons" style="stroke:#181818;stroke-width:1.0;"/><polygon fill="#181818" points="937.81,347.6111,932.7411,339.1668,933.7174,344.7388,928.1454,345.715,937.81,347.6111" style="stroke:#181818;stroke-width:1.0;"/><text fill="#000000" font-family="sans-serif" font-size="13" lengthAdjust="spacing" textLength="4" x="1024.28" y="308.6494">&#160;</text><text fill="#000000" font-family="sans-serif" font-size="13" lengthAdjust="spacing" textLength="212" x="920.28" y="325.9404">[personDetection_detected_persons]</text></g><!--link 88493cd6_cf20_4acf_baad_b117ac20500f_decide to 88493cd6_cf20_4acf_baad_b117ac20500f_idle--><g id="link_88493cd6_cf20_4acf_baad_b117ac20500f_decide_88493cd6_cf20_4acf_baad_b117ac20500f_idle"><path d="M915.28,225.3711 C915.28,204.5611 915.28,180.7211 915.28,159.9011 " fill="none" id="88493cd6_cf20_4acf_baad_b117ac20500f_decide-to-88493cd6_cf20_4acf_baad_b117ac20500f_idle" style="stroke:#181818;stroke-width:1.0;"/><polygon fill="#181818" points="915.28,153.9011,911.28,162.9011,915.28,158.9011,919.28,162.9011,915.28,153.9011" style="stroke:#181818;stroke-width:1.0;"/><text fill="#000000" font-family="sans-serif" font-size="13" lengthAdjust="spacing" textLength="4" x="1021.78" y="186.6494">&#160;</text><text fill="#000000" font-family="sans-serif" font-size="13" lengthAdjust="spacing" textLength="215" x="916.28" y="203.9404">[!personDetection_detected_persons]</text></g><!--link 88493cd6_cf20_4acf_baad_b117ac20500f_foundPersons to 88493cd6_cf20_4acf_baad_b117ac20500f_idle--><g id="link_88493cd6_cf20_4acf_baad_b117ac20500f_foundPersons_88493cd6_cf20_4acf_baad_b117ac20500f_idle"><path d="M1116.16,347.4011 C1122.83,342.4411 1128.73,336.5711 1133.28,329.6211 C1171.75,270.8711 1177.99,225.7711 1133.28,171.6211 C1109.05,142.2711 998.4425,133.5118 946.4225,130.9018 " fill="none" id="88493cd6_cf20_4acf_baad_b117ac20500f_foundPersons-to-88493cd6_cf20_4acf_baad_b117ac20500f_idle" style="stroke:#181818;stroke-width:1.0;"/><polygon fill="#181818" points="940.43,130.6011,949.2183,135.0471,945.4237,130.8516,949.6191,127.0571,940.43,130.6011" style="stroke:#181818;stroke-width:1.0;"/></g><path d="M1779.5,7 L2828.09,7 A12.5,12.5 0 0 1 2840.59,19.5 L2840.59,35.6211 L1767,35.6211 L1767,19.5 A12.5,12.5 0 0 1 1779.5,7 " fill="#F1F1F1" style="stroke:#F1F1F1;stroke-width:1.0;"/><rect fill="none" height="405.2031" rx="12.5" ry="12.5" style="stroke:#181818;stroke-width:0.5;" width="1073.59" x="1767" y="7"/><line style="stroke:#181818;stroke-width:0.5;" x1="1767" x2="2840.59" y1="35.6211" y2="35.6211"/><text fill="#000000" font-family="sans-serif" font-size="14" lengthAdjust="spacing" textLength="121" x="2243.295" y="27.1074">surveillanceSystem</text><g id="surveillanceSystem.38d7feae_3311_4403_8fe0_869a4a999c84_idle"><rect fill="#F1F1F1" height="50" rx="12.5" ry="12.5" style="stroke:#181818;stroke-width:0.5;" width="50" x="2058.59" y="103.6211"/><line style="stroke:#181818;stroke-width:0.5;" x1="2058.59" x2="2108.59" y1="132.2422" y2="132.2422"/><text fill="#000000" font-family="sans-serif" font-size="14" lengthAdjust="spacing" textLength="22" x="2072.59" y="123.7285">idle</text></g><ellipse cx="2083.59" cy="56.6211" fill="#222222" rx="10" ry="10" style="stroke:#222222;stroke-width:1.0;"/><g id="surveillanceSystem.38d7feae_3311_4403_8fe0_869a4a999c84_decide"><rect fill="#F1F1F1" height="50" rx="12.5" ry="12.5" style="stroke:#181818;stroke-width:0.5;" width="62" x="2052.59" y="225.6211"/><line style="stroke:#181818;stroke-width:0.5;" x1="2052.59" x2="2114.59" y1="254.2422" y2="254.2422"/><text fill="#000000" font-family="sans-serif" font-size="14" lengthAdjust="spacing" textLength="42" x="2062.59" y="245.7285">decide</text></g><g id="surveillanceSystem.38d7feae_3311_4403_8fe0_869a4a999c84_notifySecurity"><rect fill="#F1F1F1" height="54.582" rx="12.5" ry="12.5" style="stroke:#181818;stroke-width:0.5;" width="216" x="2091.59" y="347.6211"/><line style="stroke:#181818;stroke-width:0.5;" x1="2091.59" x2="2307.59" y1="376.2422" y2="376.2422"/><text fill="#000000" font-family="sans-serif" font-size="14" lengthAdjust="spacing" textLength="85" x="2157.09" y="367.7285">notifySecurity</text><text fill="#000000" font-family="sans-serif" font-size="12" lengthAdjust="spacing" textLength="32" x="2096.59" y="394.1914">entry /</text><text fill="#9B59B6" font-family="sans-serif" font-size="12" lengthAdjust="spacing" textLength="158" x="2131.59" y="394.1914">Raise{global_event_alarm}()</text><text fill="#000000" font-family="sans-serif" font-size="12" lengthAdjust="spacing" textLength="3" x="2289.59" y="394.1914">;</text></g><!--link *start*surveillanceSystem to 38d7feae_3311_4403_8fe0_869a4a999c84_idle--><g id="link_*start*surveillanceSystem_38d7feae_3311_4403_8fe0_869a4a999c84_idle"><path d="M2083.59,66.7711 C2083.59,76.0411 2083.59,84.7611 2083.59,97.4011 " fill="none" id="*start*surveillanceSystem-to-38d7feae_3311_4403_8fe0_869a4a999c84_idle" style="stroke:#181818;stroke-width:1.0;"/><polygon fill="#181818" points="2083.59,103.4011,2087.59,94.4011,2083.59,98.4011,2079.59,94.4011,2083.59,103.4011" style="stroke:#181818;stroke-width:1.0;"/></g><!--link 38d7feae_3311_4403_8fe0_869a4a999c84_idle to 38d7feae_3311_4403_8fe0_869a4a999c84_idle--><g id="link_38d7feae_3311_4403_8fe0_869a4a999c84_idle_38d7feae_3311_4403_8fe0_869a4a999c84_idle"><path d="M2108.77,120.7811 C2118.5,120.4311 2126.59,123.0411 2126.59,128.6211 C2126.59,134.2011 2124.4961,137.0268 2114.7661,136.6768 " fill="none" id="38d7feae_3311_4403_8fe0_869a4a999c84_idle-to-38d7feae_3311_4403_8fe0_869a4a999c84_idle" style="stroke:#181818;stroke-width:1.0;"/><polygon fill="#181818" points="2108.77,136.4611,2117.6204,140.782,2113.7668,136.6408,2117.908,132.7872,2108.77,136.4611" style="stroke:#181818;stroke-width:1.0;"/><text fill="#000000" font-family="sans-serif" font-size="13" font-weight="bold" lengthAdjust="spacing" textLength="201" x="2378.59" y="125.6494">external_event_personDetected</text><text fill="#000000" font-family="sans-serif" font-size="13" lengthAdjust="spacing" textLength="4" x="2132.59" y="142.9404">/</text><text fill="#27AE60" font-family="sans-serif" font-size="13" lengthAdjust="spacing" textLength="314" x="2140.59" y="142.9404">Assign{faceDetection_image = $faceDetection_input}()</text><text fill="#000000" font-family="sans-serif" font-size="13" lengthAdjust="spacing" textLength="4" x="2454.59" y="142.9404">;</text><text fill="#1F618D" font-family="sans-serif" font-size="13" lengthAdjust="spacing" textLength="359" x="2462.59" y="142.9404">Invoke{faceDetection.detect}([{image = faceDetection_image}])</text><text fill="#000000" font-family="sans-serif" font-size="13" lengthAdjust="spacing" textLength="4" x="2821.59" y="142.9404">;</text></g><!--link 38d7feae_3311_4403_8fe0_869a4a999c84_idle to 38d7feae_3311_4403_8fe0_869a4a999c84_decide--><g id="link_38d7feae_3311_4403_8fe0_869a4a999c84_idle_38d7feae_3311_4403_8fe0_869a4a999c84_decide"><path d="M2058.3,129.9911 C2001.31,131.4311 1865.67,138.3411 1837.59,171.6211 C1778,242.2511 1968.11,249.6835 2046.58,249.9135 " fill="none" id="38d7feae_3311_4403_8fe0_869a4a999c84_idle-to-38d7feae_3311_4403_8fe0_869a4a999c84_decide" style="stroke:#181818;stroke-width:1.0;"/><polygon fill="#181818" points="2052.58,249.9311,2043.5918,245.9047,2047.58,249.9164,2043.5683,253.9047,2052.58,249.9311" style="stroke:#181818;stroke-width:1.0;"/><text fill="#000000" font-family="sans-serif" font-size="13" font-weight="bold" lengthAdjust="spacing" textLength="222" x="1838.59" y="195.1494">event_decideIfPersonIsWhiteListed</text></g><!--link 38d7feae_3311_4403_8fe0_869a4a999c84_decide to 38d7feae_3311_4403_8fe0_869a4a999c84_notifySecurity--><g id="link_38d7feae_3311_4403_8fe0_869a4a999c84_decide_38d7feae_3311_4403_8fe0_869a4a999c84_notifySecurity"><path d="M2078.5,275.6511 C2076.37,292.3111 2076.53,314.1911 2087.59,329.6211 C2092.65,336.6811 2094.0988,339.1743 2101.2088,344.1643 " fill="none" id="38d7feae_3311_4403_8fe0_869a4a999c84_decide-to-38d7feae_3311_4403_8fe0_869a4a999c84_notifySecurity" style="stroke:#181818;stroke-width:1.0;"/><polygon fill="#181818" points="2106.12,347.6111,2101.0511,339.1668,2102.0274,344.7388,2096.4554,345.715,2106.12,347.6111" style="stroke:#181818;stroke-width:1.0;"/><text fill="#000000" font-family="sans-serif" font-size="13" lengthAdjust="spacing" textLength="4" x="2192.59" y="308.6494">&#160;</text><text fill="#000000" font-family="sans-serif" font-size="13" lengthAdjust="spacing" textLength="212" x="2088.59" y="325.9404">[personDetection_detected_persons]</text></g><!--link 38d7feae_3311_4403_8fe0_869a4a999c84_decide to 38d7feae_3311_4403_8fe0_869a4a999c84_idle--><g id="link_38d7feae_3311_4403_8fe0_869a4a999c84_decide_38d7feae_3311_4403_8fe0_869a4a999c84_idle"><path d="M2083.59,225.3711 C2083.59,204.5611 2083.59,180.7211 2083.59,159.9011 " fill="none" id="38d7feae_3311_4403_8fe0_869a4a999c84_decide-to-38d7feae_3311_4403_8fe0_869a4a999c84_idle" style="stroke:#181818;stroke-width:1.0;"/><polygon fill="#181818" points="2083.59,153.9011,2079.59,162.9011,2083.59,158.9011,2087.59,162.9011,2083.59,153.9011" style="stroke:#181818;stroke-width:1.0;"/><text fill="#000000" font-family="sans-serif" font-size="13" lengthAdjust="spacing" textLength="4" x="2190.09" y="186.6494">&#160;</text><text fill="#000000" font-family="sans-serif" font-size="13" lengthAdjust="spacing" textLength="215" x="2084.59" y="203.9404">[!personDetection_detected_persons]</text></g><!--link 38d7feae_3311_4403_8fe0_869a4a999c84_notifySecurity to 38d7feae_3311_4403_8fe0_869a4a999c84_idle--><g id="link_38d7feae_3311_4403_8fe0_869a4a999c84_notifySecurity_38d7feae_3311_4403_8fe0_869a4a999c84_idle"><path d="M2284.48,347.4011 C2291.14,342.4411 2297.04,336.5711 2301.59,329.6211 C2340.06,270.8711 2346.31,225.7711 2301.59,171.6211 C2277.36,142.2711 2166.7625,133.5118 2114.7425,130.9018 " fill="none" id="38d7feae_3311_4403_8fe0_869a4a999c84_notifySecurity-to-38d7feae_3311_4403_8fe0_869a4a999c84_idle" style="stroke:#181818;stroke-width:1.0;"/><polygon fill="#181818" points="2108.75,130.6011,2117.5383,135.0471,2113.7437,130.8516,2117.9391,127.0571,2108.75,130.6011" style="stroke:#181818;stroke-width:1.0;"/></g><!--SRC=[jPLTRvim58Rl-okyRXSTMbi8X8-kYzIgcnHf5zDwiOiqiXnpI569gR0JDKByzv504WYmsbF8LK9yNh_dwu4B8W1Hie24eFGCvH- -VNGU-X6S8yAH3ZeufaMmuLW6jdINOZBqN1mC7GiCEXWInyQRqzleYJP5bvSZnQZgnImMOR3-1GcFsGC8e29Ev8sqHVUhZcuGC96iqJMwfN4K9pSVlVkXTs-FVfEGGmfl0X968Woh_1ocpq1Vna6XmSTil21po2u-trvlWqTVqQ4YqaLKAtdkMDDAD-HLB1FGj2Tsi6_yi0ttOJHcg_W5qc8uhigJsSKaNOK-n9Wj5pD8q3TaP5zGwaD4rlaFKy-cnxdqa4P78_PfjHLPq-JTjEghpNLsLepSQrsaVSbSr_9CwjkO1WCTMuG6U4Q8ZsU6uH0wq8Uw7ZINJ2sgUh4FD6-Y_DN5-OPC42-PNrPPNgmQTLernLsijWRyZYMKBh9QIuffbM13VJS7pjrtMn_TSHxEMLfD88mP3ZS1-HP-Qlp1NfUYbc3xiX_5NVdRRvkbtqctNjdS-HwgLinWPSkB1_jwxVfOxhcAfhI7es5xOfFZUlYbYtAu-BG_C-KOvIO-dD15BKKrokoGnvV92i8e8ep2uveBM7HWptHz9m02s3IDdAQMRc8t01sxjaSiudaUTQqczjIYEh0d9TA1lUBjy0XqcOHYBIzNZpkzudlucqVnR0yR4f5aqS4ywGghzQEDUNK6_mjs0Q7GWhgZnvAWgqMrOAxbiYRaUYZJEv0Ryp_FeO2V8J-0JaLNsaTZiAHHruiTPTJzJv9gRCd-0W00]--></g></svg>